PathFileType	4	(X/Y/Z)	/Users/niels/Desktop/University/Third Semester/Perception and Action/Exam/Gymnastics Motion Tracking/Code for Gym Tracking/Scripts/Analyzed Data/kraft_bad_id3_1_nmspeed_Sports2D/kraft_bad_id3_1_nmspeed_Sports2D_px_person00.trc
DataRate	CameraRate	NumFrames	NumMarkers	Units	OrigDataRate	OrigDataStartFrame	OrigNumFrames
49.404761904761905	49.404761904761905	9	22	m	49.404761904761905	70	84
Frame#	Time	Hip			RHip			RKnee			RAnkle			RBigToe			RSmallToe			RHeel			LHip			LKnee			LAnkle			LBigToe			LSmallToe			LHeel			Neck			Head			Nose			RShoulder			RElbow			RWrist			LShoulder			LElbow			LWrist		
		X1	Y1	Z1	X2	Y2	Z2	X3	Y3	Z3	X4	Y4	Z4	X5	Y5	Z5	X6	Y6	Z6	X7	Y7	Z7	X8	Y8	Z8	X9	Y9	Z9	X10	Y10	Z10	X11	Y11	Z11	X12	Y12	Z12	X13	Y13	Z13	X14	Y14	Z14	X15	Y15	Z15	X16	Y16	Z16	X17	Y17	Z17	X18	Y18	Z18	X19	Y19	Z19	X20	Y20	Z20	X21	Y21	Z21	X22	Y22	Z22
70	1.416867469879518	1.3628302495005336	-0.5948039237917659	0.0	1.36063663823501	-0.6101444966054056	0.0	1.4208675952964878	-0.7414397850103587	0.0	1.389546082738276	-0.8694625778515345	0.0	1.4210089705553623	-0.8797187723253573	0.0	1.4079447104542835	-0.8933642891814524	0.0	1.3768641714972958	-0.8856825529959998	0.0	1.3686790719039565	-0.5818812744366425	0.0	1.468036688886854	-0.5480183168213234	0.0	1.5612307161988486	-0.6294645504786576	0.0	1.6139850609735487	-0.6072942453566326	0.0	1.6137471119383928	-0.6036881027123154	0.0	1.5655001880440294	-0.6495773796268559	0.0	1.2231076264608094	-0.5227638454197067	0.0	1.1543569782933112	-0.46476319715153047	0.0	1.2096301793808852	-0.48539917650372927	0.0	1.2296824674204674	-0.5345814851557843	0.0	1.1821201099027647	-0.5684313074695784	0.0	1.118846964878149	-0.5877980084646622	0.0	1.2205663625882999	-0.5138198018460477	0.0	1.1631314497371328	-0.5236256707760143	0.0	1.1114271595728769	-0.5460770352484315	0.0
71	1.4371084337349396	1.375726626111275	-0.6119631991727396	0.0	1.3719543513632853	-0.6258279782327043	0.0	1.4237865251690012	-0.7605730121876256	0.0	1.3908444529119195	-0.8851298218033241	0.0	1.4190338373441485	-0.8936498053739541	0.0	1.4051559235852362	-0.9073023487187476	0.0	1.377416849216969	-0.9007261241227391	0.0	1.38245105681277	-0.59936588718212	0.0	1.485807190594212	-0.5792719699497462	0.0	1.5684612041672328	-0.6690353330077778	0.0	1.620513889042601	-0.6522434432154459	0.0	1.6207170372317372	-0.6486921517593326	0.0	1.5708458919974377	-0.68959658458588	0.0	1.2449673195074566	-0.5227420702854958	0.0	1.1832037883731819	-0.4566415720865108	0.0	1.236963294276723	-0.4823067759412734	0.0	1.250296941557431	-0.5343993957916631	0.0	1.20069772625186	-0.5593404967099823	0.0	1.1363409264855486	-0.5670744064723005	0.0	1.2406823151410276	-0.5158811575639137	0.0	1.1818297683938332	-0.5133257541152814	0.0	1.1290923240562465	-0.5252144671990978	0.0
72	1.4573493975903613	1.3879314035947614	-0.6278398631637109	0.0	1.3829370736717128	-0.6401141553942297	0.0	1.4277307331920568	-0.7766631429723659	0.0	1.3919134665369386	-0.897151971424823	0.0	1.4176665545557094	-0.9040704644935194	0.0	1.403047975941461	-0.9174554631892354	0.0	1.3777528512329036	-0.911816853579046	0.0	1.3953649740049296	-0.6159566127374377	0.0	1.5014478311206956	-0.6099992787082525	0.0	1.573007732465286	-0.7069775729480524	0.0	1.623377326880833	-0.6952894204688732	0.0	1.6238598350146909	-0.6919129003192962	0.0	1.573565269573586	-0.7276678599077682	0.0	1.2669462003568992	-0.523306279874613	0.0	1.213318862719355	-0.45045700744739103	0.0	1.2648115190388811	-0.48050603569704264	0.0	1.2711488792966201	-0.5351244269299538	0.0	1.220503409459881	-0.5521760210912033	0.0	1.1567796287159386	-0.548558891971192	0.0	1.2611167267934211	-0.5186641296507035	0.0	1.2021115898588546	-0.5053380960576843	0.0	1.1498851148480098	-0.5079510785635309	0.0
73	1.477590361445783	1.3996989570679637	-0.642003990893299	0.0	1.3938745119773885	-0.6526594644469144	0.0	1.4331657510643059	-0.7896642205289284	0.0	1.3929310996914477	-0.9054769127760913	0.0	1.4168429229548503	-0.9110555065916444	0.0	1.4016663787832797	-0.9239109560038887	0.0	1.3780655164942894	-0.9189017525158829	0.0	1.4076555329484728	-0.6311738426034119	0.0	1.5151740782939822	-0.6395274552544725	0.0	1.5754201429910306	-0.7425059527451524	0.0	1.6233233701795085	-0.7353914351521667	0.0	1.623809175172593	-0.7323190399723605	0.0	1.5742778687825327	-0.7629792164711285	0.0	1.2888713863047625	-0.5240999569212081	0.0	1.2442727418816983	-0.4459548252066034	0.0	1.2928201767011507	-0.47974514854277933	0.0	1.2920621594439734	-0.5364207384613962	0.0	1.241480588673732	-0.5470113914751915	0.0	1.1799516955201963	-0.5329796905181049	0.0	1.28176055527268	-0.5217962972126088	0.0	1.2238632657645956	-0.4998427704165075	0.0	1.1735255719644593	-0.4949685746160314	0.0
74	1.4978313253012048	1.4112525237388076	-0.6541373427923544	0.0	1.4049799717035887	-0.6631899938108635	0.0	1.44047901019471	-0.7996317331997377	0.0	1.3941438605788254	-0.9102050383609224	0.0	1.4164969876876523	-0.9148491574648091	0.0	1.4010197334403565	-0.926911812637814	0.0	1.3786402014014643	-0.9220989467282475	0.0	1.419523745806007	-0.644577345820502	0.0	1.5272353255257793	-0.6670806544530736	0.0	1.576384040318874	-0.7748273303409917	0.0	1.6213891832916565	-0.7714852152434197	0.0	1.6214806074516848	-0.7688623557362054	0.0	1.5737277448990898	-0.7947543917802141	0.0	1.3106252347508032	-0.5247818169173862	0.0	1.2755665224424924	-0.44280581836183547	0.0	1.3206520207003218	-0.47971104507487666	0.0	1.3128765484965685	-0.5378697879264901	0.0	1.2634855504178524	-0.5437612454000822	0.0	1.2054711231801527	-0.5208890220233393	0.0	1.302517493267466	-0.5248766031955138	0.0	1.246875923791049	-0.496755250976437	0.0	1.1994812217169375	-0.48625496402744206	0.0
75	1.5180722891566265	1.4227591031839277	-0.6639899774142862	0.0	1.416390970785374	-0.6714915350399646	0.0	1.4499512853389172	-0.8066834714515438	0.0	1.3958647773935693	-0.9114831502682483	0.0	1.4166856824791048	-0.9158348933991969	0.0	1.4011467443118568	-0.9268146310261401	0.0	1.3798074553804618	-0.9216192591554904	0.0	1.4311131393648988	-0.6557843938112126	0.0	1.5379141384277424	-0.6918119705340002	0.0	1.576632746161194	-0.8031967639906793	0.0	1.6188061899561614	-0.8026137135671483	0.0	1.6179847314741589	-0.8005805413984668	0.0	1.5726862128906374	-0.8223309245283875	0.0	1.332107989052763	-0.5250762997311195	0.0	1.306650538320809	-0.4406492727234098	0.0	1.3479791786734812	-0.48007741233064655	0.0	1.3334411464880829	-0.5390412466621979	0.0	1.2863005099012819	-0.5421671864734551	0.0	1.2328107097248966	-0.5125452699452979	0.0	1.3232881865815083	-0.5275235289258208	0.0	1.2708444808379344	-0.4958074870270186	0.0	1.227097995199372	-0.4813231114308802	0.0
76	1.538313253012048	1.4343589130526848	-0.6714281139711401	0.0	1.428199706960821	-0.6774755229228066	0.0	1.461776188281634	-0.8110181683988841	0.0	1.39844682138305	-0.9094567034966097	0.0	1.417578737175188	-0.9144370037405272	0.0	1.4021413763364352	-0.9240154624611764	0.0	1.3818952554435644	-0.9177097014869209	0.0	1.4425626661559123	-0.6645487921499973	0.0	1.547570575639439	-0.713026150581098	0.0	1.576815178104697	-0.8271275797463474	0.0	1.616747497860253	-0.8282508813664369	0.0	1.6144116939867983	-0.826908123698983	0.0	1.5718060103233338	-0.845339486685692	0.0	1.3532987504983134	-0.5247952365849737	0.0	1.3371124606882758	-0.4391189441014499	0.0	1.3746099712139839	-0.48054972447168137	0.0	1.3536998687676431	-0.5395725019298142	0.0	1.3097593266219103	-0.5418430252638449	0.0	1.2614951242965586	-0.5078900495074459	0.0	1.344028198757911	-0.5294326334359468	0.0	1.2955017046691486	-0.4966940089577623	0.0	1.2558631581071125	-0.4795158670535905	0.0
77	1.5585542168674698	1.4461660219268346	-0.6764844953474712	0.0	1.4404388139644628	-0.6812305901247888	0.0	1.4760705141653458	-0.8129118524992434	0.0	1.4022259691762187	-0.9042780694002795	0.0	1.419346159492003	-0.9109928373534979	0.0	1.4041280938206508	-0.918856389669179	0.0	1.3851990351674561	-0.9106273387468965	0.0	1.4540266167207698	-0.6708116264056455	0.0	1.5566265316263674	-0.7303507656054433	0.0	1.5773619611777	-0.846472345519077	0.0	1.6160049720006844	-0.848408308951428	0.0	1.6115689279685672	-0.8478102689153671	0.0	1.5714920958648186	-0.8637303192449598	0.0	1.3742557127100512	-0.5238333928507911	0.0	1.366777396093547	-0.43787383362676807	0.0	1.4005181335373789	-0.4809080231701133	0.0	1.3736935708451763	-0.5392185575613556	0.0	1.333777497536557	-0.5423739433137523	0.0	1.2912049504409622	-0.506652878564431	0.0	1.3647494051752775	-0.5304156277925238	0.0	1.3206926281311142	-0.49923518817845286	0.0	1.2854995922780057	-0.480250423051109	0.0
78	1.5787951807228915	1.4582261524548032	-0.6793533892704066	0.0	1.4530385205566856	-0.6830122718748063	0.0	1.4928312375371362	-0.812676513079556	0.0	1.4074676502516852	-0.8961328664473523	0.0	1.4220855434307926	-0.9057210107915934	0.0	1.4072429460257934	-0.9115898090941592	0.0	1.3899656238339584	-0.9006406720352127	0.0	1.4656286310460378	-0.674700527275451	0.0	1.5654736819975101	-0.7437449607411843	0.0	1.5784344124573573	-0.8613406803909053	0.0	1.616832793972207	-0.8634827594683694	0.0	1.6098653296101508	-0.8636555895846434	0.0	1.571872018018486	-0.8776751342251772	0.0	1.3950183315419062	-0.5221626529347769	0.0	1.3956138436855074	-0.4366399615963897	0.0	1.425721865952095	-0.4810340670097925	0.0	1.3934447313766254	-0.5378613993487652	0.0	1.3582561940222428	-0.5433878839812383	0.0	1.3216901257236533	-0.5084531372043847	0.0	1.3854413633027858	-0.5304070867532658	0.0	1.3463034816225472	-0.5034482570631569	0.0	1.3158509762940036	-0.4831212019274049	0.0
